<svg width="150" height="40" viewBox="0 0 150 40" fill="none" xmlns="http://www.w3.org/2000/svg">
<rect x="0.5" y="0.5" width="149" height="39" rx="4.5" stroke="#656F78"/>
<g clip-path="url(#clip0_4_2253)">
<path d="M111 19.5304V18.2698H109.428V16.3101L109.375 16.3263L107.899 16.7761L107.87 16.785V18.2699H105.54V17.4429C105.54 17.0578 105.627 16.7628 105.797 16.5662C105.966 16.372 106.208 16.2732 106.517 16.2732C106.739 16.2732 106.969 16.3253 107.2 16.4281L107.258 16.4538V15.1262L107.231 15.1162C107.015 15.0389 106.721 15 106.358 15C105.899 15 105.483 15.0994 105.12 15.2963C104.756 15.4935 104.47 15.775 104.27 16.1331C104.07 16.4906 103.969 16.9036 103.969 17.3605V18.2699H102.875V19.5306H103.969V24.8413H105.54V19.5304H107.87V22.9054C107.87 24.2955 108.528 25 109.826 25C110.04 25 110.264 24.9749 110.494 24.9262C110.727 24.8762 110.886 24.8262 110.979 24.7727L111 24.7607V23.4883L110.936 23.5303C110.851 23.5871 110.745 23.6332 110.62 23.6675C110.495 23.7025 110.391 23.7202 110.31 23.7202C110.006 23.7202 109.781 23.6385 109.641 23.4775C109.5 23.315 109.428 23.0308 109.428 22.633V19.5304H111ZM99.366 23.7205C98.7958 23.7205 98.3463 23.532 98.0294 23.161C97.7107 22.7881 97.5491 22.2565 97.5491 21.5811C97.5491 20.8844 97.7107 20.3389 98.0295 19.9594C98.3466 19.5824 98.7918 19.3911 99.3532 19.3911C99.898 19.3911 100.332 19.5739 100.642 19.9345C100.954 20.2972 101.113 20.8381 101.113 21.5431C101.113 22.2566 100.964 22.8049 100.67 23.1715C100.378 23.5355 99.9397 23.7205 99.366 23.7205ZM99.436 18.1116C98.3481 18.1116 97.4839 18.429 96.8679 19.0553C96.2521 19.6817 95.94 20.5483 95.94 21.6316C95.94 22.6605 96.2447 23.4881 96.8459 24.091C97.4469 24.6943 98.2649 24.9999 99.2767 24.9999C100.331 24.9999 101.178 24.6778 101.794 24.043C102.41 23.4086 102.722 22.5501 102.722 21.4921C102.722 20.4471 102.429 19.6133 101.852 19.0144C101.274 18.4153 100.461 18.1116 99.436 18.1116ZM93.4069 18.1116C92.6668 18.1116 92.0548 18.3001 91.587 18.6717C91.1166 19.0456 90.878 19.5362 90.878 20.1297C90.878 20.4382 90.9296 20.7122 91.031 20.9447C91.1329 21.1779 91.2908 21.3832 91.5004 21.5556C91.7085 21.7264 92.0296 21.9055 92.4553 22.0877C92.8132 22.2343 93.08 22.3584 93.2496 22.4562C93.4152 22.552 93.5329 22.6483 93.5994 22.7421C93.6638 22.8339 93.6967 22.9595 93.6967 23.1146C93.6967 23.5562 93.3647 23.7709 92.6816 23.7709C92.4283 23.7709 92.1393 23.7184 91.8228 23.6144C91.5085 23.5121 91.2119 23.3622 90.9432 23.1701L90.878 23.1236V24.6302L90.9019 24.6414C91.1243 24.7436 91.4045 24.8296 91.7348 24.8975C92.0646 24.9654 92.3641 25 92.6243 25C93.4274 25 94.0742 24.8105 94.546 24.4365C95.0208 24.0601 95.2616 23.558 95.2616 22.9438C95.2616 22.5008 95.132 22.1211 94.8765 21.8146C94.6229 21.5108 94.1828 21.2318 93.5687 20.9852C93.0796 20.7897 92.7662 20.6274 92.637 20.5027C92.5124 20.3823 92.4492 20.2122 92.4492 19.9966C92.4492 19.8055 92.5272 19.6524 92.6876 19.5283C92.8493 19.4037 93.0741 19.3403 93.3561 19.3403C93.6179 19.3403 93.8858 19.3814 94.152 19.4621C94.4183 19.5429 94.652 19.651 94.8471 19.7832L94.9114 19.8269V18.3978L94.8867 18.3872C94.7067 18.3103 94.4692 18.2446 94.1809 18.1911C93.8938 18.1383 93.6334 18.1116 93.4069 18.1116ZM86.7822 23.7203C86.2122 23.7203 85.7624 23.532 85.4457 23.161C85.1268 22.7881 84.9656 22.2566 84.9656 21.5811C84.9656 20.8844 85.127 20.3389 85.446 19.9594C85.7627 19.5824 86.208 19.3911 86.7697 19.3911C87.3142 19.3911 87.7478 19.5739 88.0585 19.9345C88.3706 20.2972 88.5291 20.8381 88.5291 21.5431C88.5291 22.2566 88.3801 22.8049 88.0862 23.1715C87.7946 23.5355 87.3561 23.7205 86.7822 23.7205V23.7203ZM86.8525 18.1116C85.7643 18.1116 84.9 18.429 84.2842 19.0553C83.6686 19.6817 83.3563 20.5483 83.3563 21.6316C83.3563 22.6609 83.6611 23.4881 84.2622 24.091C84.8632 24.6943 85.6812 24.9999 86.6932 24.9999C87.7477 24.9999 88.5947 24.6778 89.2105 24.043C89.8262 23.4086 90.1385 22.5501 90.1385 21.4921C90.1385 20.4471 89.8455 19.6133 89.2678 19.0144C88.6896 18.4153 87.877 18.1116 86.8523 18.1116H86.8525ZM80.9714 19.4079V18.2698H79.4193V24.8413H80.9712V21.4798C80.9712 20.9082 81.1014 20.4386 81.3582 20.0839C81.6117 19.7334 81.9494 19.5559 82.3619 19.5559C82.5016 19.5559 82.6585 19.5788 82.8285 19.6243C82.9967 19.6694 83.1186 19.7184 83.1904 19.7699L83.2555 19.817V18.2586L83.2305 18.2478C83.0858 18.1866 82.8815 18.1558 82.6227 18.1558C82.2328 18.1558 81.8837 18.2806 81.5848 18.5264C81.3224 18.7423 81.1328 19.0385 80.9877 19.4079H80.9712H80.9714ZM76.6402 18.1116C75.9282 18.1116 75.2932 18.2636 74.7529 18.5633C74.2116 18.8637 73.793 19.2928 73.5083 19.8383C73.2247 20.3825 73.0809 21.018 73.0809 21.7268C73.0809 22.3476 73.2204 22.9175 73.4962 23.4196C73.7722 23.9227 74.1631 24.3162 74.6575 24.589C75.1514 24.8616 75.7221 25 76.3541 25C77.0917 25 77.7214 24.853 78.2263 24.5635L78.2466 24.5517V23.1355L78.1814 23.183C77.9491 23.3507 77.6933 23.4834 77.4222 23.5768C77.1479 23.672 76.8978 23.7203 76.6784 23.7203C76.0697 23.7203 75.5808 23.5304 75.2258 23.1564C74.8701 22.7816 74.6899 22.2556 74.6899 21.5935C74.6899 20.9273 74.878 20.3878 75.2486 19.9895C75.6179 19.5926 76.1076 19.3912 76.7042 19.3912C77.2143 19.3912 77.7113 19.5632 78.1816 19.9031L78.2466 19.9501V18.458L78.2256 18.4461C78.0487 18.3475 77.8073 18.266 77.5075 18.2043C77.2093 18.1426 76.9175 18.1116 76.6401 18.1116H76.6402ZM72.0118 18.2698H70.4599V24.8413H72.0119V18.2699L72.0118 18.2698ZM71.2518 15.4704C70.9964 15.4704 70.7737 15.5569 70.5905 15.7286C70.4068 15.9009 70.3136 16.1175 70.3136 16.3732C70.3136 16.6249 70.4056 16.8376 70.5877 17.0051C70.7685 17.1722 70.9919 17.2569 71.2518 17.2569C71.5116 17.2569 71.7358 17.1722 71.9189 17.0054C72.1031 16.8376 72.1966 16.6249 72.1966 16.3732C72.1966 16.1263 72.1056 15.9118 71.9265 15.7355C71.7475 15.5596 71.5206 15.4704 71.2518 15.4704ZM67.3798 17.785V24.8413H68.9634V15.6716H66.7715L63.9852 22.4825L61.2813 15.6716H59V24.8413H60.4883V17.7843H60.5395L63.3947 24.8412H64.5179L67.3284 17.785H67.3796H67.3798Z" fill="#706D6E"/>
<path d="M45.6042 19.8143H38V12H45.6042V19.8143Z" fill="#F1511B"/>
<path d="M54 19.8143H46.396V12H54V19.8143Z" fill="#80CC28"/>
<path d="M45.6039 28.445H38V20.6309H45.6039V28.445Z" fill="#00ADEF"/>
<path d="M54 28.445H46.396V20.6309H54V28.445Z" fill="#FBBC09"/>
</g>
<defs>
<clipPath id="clip0_4_2253">
<rect width="74" height="16" fill="white" transform="translate(38 12)"/>
</clipPath>
</defs>
</svg>
