<svg width="150" height="41" viewBox="0 0 150 41" fill="none" xmlns="http://www.w3.org/2000/svg">
<rect x="0.5" y="0.669067" width="149" height="39" rx="4.5" stroke="#656F78"/>
<g clip-path="url(#clip0_4_2199)">
<path d="M111 19.6995V18.4389H109.428V16.4791L109.375 16.4954L107.899 16.9452L107.87 16.954V18.439H105.54V17.6119C105.54 17.2268 105.627 16.9319 105.797 16.7353C105.966 16.541 106.208 16.4423 106.517 16.4423C106.739 16.4423 106.969 16.4944 107.2 16.5972L107.258 16.6228V15.2952L107.231 15.2853C107.015 15.208 106.721 15.1691 106.358 15.1691C105.899 15.1691 105.483 15.2685 105.12 15.4654C104.756 15.6626 104.47 15.9441 104.27 16.3021C104.07 16.6597 103.969 17.0726 103.969 17.5296V18.439H102.875V19.6997H103.969V25.0104H105.54V19.6995H107.87V23.0745C107.87 24.4645 108.528 25.1691 109.826 25.1691C110.04 25.1691 110.264 25.144 110.494 25.0953C110.727 25.0453 110.886 24.9953 110.979 24.9418L111 24.9297V23.6573L110.936 23.6993C110.851 23.7562 110.745 23.8023 110.62 23.8366C110.495 23.8716 110.391 23.8892 110.31 23.8892C110.006 23.8892 109.781 23.8076 109.641 23.6466C109.5 23.4841 109.428 23.1998 109.428 22.8021V19.6995H111ZM99.366 23.8895C98.7958 23.8895 98.3463 23.701 98.0294 23.3301C97.7107 22.9571 97.5491 22.4255 97.5491 21.7501C97.5491 21.0534 97.7107 20.508 98.0295 20.1285C98.3466 19.7515 98.7918 19.5602 99.3532 19.5602C99.898 19.5602 100.332 19.7429 100.642 20.1035C100.954 20.4662 101.113 21.0072 101.113 21.7122C101.113 22.4257 100.964 22.9739 100.67 23.3406C100.378 23.7045 99.9397 23.8895 99.366 23.8895ZM99.436 18.2806C98.3481 18.2806 97.4839 18.5981 96.8679 19.2244C96.2521 19.8508 95.94 20.7173 95.94 21.8007C95.94 22.8296 96.2447 23.6572 96.8459 24.2601C97.4469 24.8634 98.2649 25.1689 99.2767 25.1689C100.331 25.1689 101.178 24.8468 101.794 24.212C102.41 23.5776 102.722 22.7192 102.722 21.6612C102.722 20.6162 102.429 19.7824 101.852 19.1835C101.274 18.5844 100.461 18.2806 99.436 18.2806ZM93.4069 18.2806C92.6668 18.2806 92.0548 18.4691 91.587 18.8408C91.1166 19.2147 90.878 19.7053 90.878 20.2987C90.878 20.6073 90.9296 20.8813 91.031 21.1138C91.1329 21.3469 91.2908 21.5522 91.5004 21.7246C91.7085 21.8955 92.0296 22.0746 92.4553 22.2568C92.8132 22.4034 93.08 22.5275 93.2496 22.6252C93.4152 22.721 93.5329 22.8174 93.5994 22.9112C93.6638 23.0029 93.6967 23.1285 93.6967 23.2837C93.6967 23.7253 93.3647 23.9399 92.6816 23.9399C92.4283 23.9399 92.1393 23.8874 91.8228 23.7835C91.5085 23.6811 91.2119 23.5313 90.9432 23.3392L90.878 23.2927V24.7992L90.9019 24.8104C91.1243 24.9127 91.4045 24.9986 91.7348 25.0666C92.0646 25.1345 92.3641 25.1691 92.6243 25.1691C93.4274 25.1691 94.0742 24.9796 94.546 24.6055C95.0208 24.2291 95.2616 23.7271 95.2616 23.1129C95.2616 22.6699 95.132 22.2901 94.8765 21.9837C94.6229 21.6798 94.1828 21.4009 93.5687 21.1543C93.0796 20.9588 92.7662 20.7964 92.637 20.6718C92.5124 20.5514 92.4492 20.3812 92.4492 20.1657C92.4492 19.9746 92.5272 19.8215 92.6876 19.6974C92.8493 19.5728 93.0741 19.5093 93.3561 19.5093C93.6179 19.5093 93.8858 19.5505 94.152 19.6312C94.4183 19.712 94.652 19.8201 94.8471 19.9523L94.9114 19.996V18.5669L94.8867 18.5562C94.7067 18.4793 94.4692 18.4137 94.1809 18.3602C93.8938 18.3074 93.6334 18.2806 93.4069 18.2806ZM86.7822 23.8894C86.2122 23.8894 85.7624 23.701 85.4457 23.3301C85.1268 22.9571 84.9656 22.4257 84.9656 21.7501C84.9656 21.0534 85.127 20.508 85.446 20.1285C85.7627 19.7515 86.208 19.5602 86.7697 19.5602C87.3142 19.5602 87.7478 19.7429 88.0585 20.1035C88.3706 20.4662 88.5291 21.0072 88.5291 21.7122C88.5291 22.4257 88.3801 22.9739 88.0862 23.3406C87.7946 23.7045 87.3561 23.8895 86.7822 23.8895V23.8894ZM86.8525 18.2806C85.7643 18.2806 84.9 18.5981 84.2842 19.2244C83.6686 19.8508 83.3563 20.7173 83.3563 21.8007C83.3563 22.83 83.6611 23.6572 84.2622 24.2601C84.8632 24.8634 85.6812 25.1689 86.6932 25.1689C87.7477 25.1689 88.5947 24.8468 89.2105 24.212C89.8262 23.5776 90.1385 22.7192 90.1385 21.6612C90.1385 20.6162 89.8455 19.7824 89.2678 19.1835C88.6896 18.5844 87.877 18.2806 86.8523 18.2806H86.8525ZM80.9714 19.577V18.4389H79.4193V25.0104H80.9712V21.6489C80.9712 21.0772 81.1014 20.6077 81.3582 20.253C81.6117 19.9024 81.9494 19.725 82.3619 19.725C82.5016 19.725 82.6585 19.7478 82.8285 19.7933C82.9967 19.8384 83.1186 19.8874 83.1904 19.939L83.2555 19.986V18.4277L83.2305 18.4169C83.0858 18.3557 82.8815 18.3249 82.6227 18.3249C82.2328 18.3249 81.8837 18.4497 81.5848 18.6954C81.3224 18.9114 81.1328 19.2076 80.9877 19.577H80.9712H80.9714ZM76.6402 18.2806C75.9282 18.2806 75.2932 18.4327 74.7529 18.7324C74.2116 19.0328 73.793 19.4619 73.5083 20.0073C73.2247 20.5515 73.0809 21.187 73.0809 21.8959C73.0809 22.5167 73.2204 23.0865 73.4962 23.5887C73.7722 24.0917 74.1631 24.4853 74.6575 24.758C75.1514 25.0307 75.7221 25.1691 76.3541 25.1691C77.0917 25.1691 77.7214 25.022 78.2263 24.7326L78.2466 24.7208V23.3046L78.1814 23.352C77.9491 23.5198 77.6933 23.6524 77.4222 23.7458C77.1479 23.8411 76.8978 23.8894 76.6784 23.8894C76.0697 23.8894 75.5808 23.6995 75.2258 23.3254C74.8701 22.9507 74.6899 22.4247 74.6899 21.7626C74.6899 21.0964 74.878 20.5568 75.2486 20.1586C75.6179 19.7617 76.1076 19.5603 76.7042 19.5603C77.2143 19.5603 77.7113 19.7323 78.1816 20.0722L78.2466 20.1192V18.6271L78.2256 18.6152C78.0487 18.5166 77.8073 18.4351 77.5075 18.3733C77.2093 18.3117 76.9175 18.2806 76.6401 18.2806H76.6402ZM72.0118 18.4389H70.4599V25.0104H72.0119V18.439L72.0118 18.4389ZM71.2518 15.6395C70.9964 15.6395 70.7737 15.726 70.5905 15.8977C70.4068 16.0699 70.3136 16.2866 70.3136 16.5423C70.3136 16.794 70.4056 17.0067 70.5877 17.1742C70.7685 17.3412 70.9919 17.426 71.2518 17.426C71.5116 17.426 71.7358 17.3412 71.9189 17.1744C72.1031 17.0067 72.1966 16.794 72.1966 16.5423C72.1966 16.2954 72.1056 16.0809 71.9265 15.9046C71.7475 15.7287 71.5206 15.6395 71.2518 15.6395ZM67.3798 17.954V25.0104H68.9634V15.8407H66.7715L63.9852 22.6516L61.2813 15.8407H59V25.0104H60.4883V17.9533H60.5395L63.3947 25.0103H64.5179L67.3284 17.954H67.3796H67.3798Z" fill="#706D6E"/>
<path d="M45.6042 19.9833H38V12.1691H45.6042V19.9833Z" fill="#F1511B"/>
<path d="M54 19.9833H46.396V12.1691H54V19.9833Z" fill="#80CC28"/>
<path d="M45.6039 28.614H38V20.7999H45.6039V28.614Z" fill="#00ADEF"/>
<path d="M54 28.614H46.396V20.7999H54V28.614Z" fill="#FBBC09"/>
</g>
<defs>
<clipPath id="clip0_4_2199">
<rect width="74" height="16" fill="white" transform="translate(38 12.1691)"/>
</clipPath>
</defs>
</svg>
