<svg width="18" height="18" viewBox="0 0 18 18" fill="none" xmlns="http://www.w3.org/2000/svg">
<path fill-rule="evenodd" clip-rule="evenodd" d="M2.70533 0.000110626C1.21122 0.000110626 0 1.21133 0 2.70544V15.0337C0 16.5278 1.21122 17.739 2.70533 17.739H15.0336C16.5277 17.739 17.7389 16.5278 17.7389 15.0337V2.70544C17.7389 1.21133 16.5277 0.000110626 15.0336 0.000110626H2.70533ZM12.4698 8.85392C12.4698 10.8142 10.8689 12.4233 8.86946 12.4233C6.86999 12.4233 5.26917 10.8142 5.26917 8.85392C5.26917 6.89363 6.86999 5.28449 8.86946 5.28449C10.8689 5.28449 12.4698 6.89363 12.4698 8.85392ZM14.6718 8.85392C14.6718 12.0414 12.074 14.6254 8.86946 14.6254C5.66494 14.6254 3.06716 12.0414 3.06716 8.85392C3.06716 5.66644 5.66494 3.08248 8.86946 3.08248C12.074 3.08248 14.6718 5.66644 14.6718 8.85392Z" fill="white"/>
</svg>
