<svg width="29" height="28" viewBox="0 0 29 28" fill="none" xmlns="http://www.w3.org/2000/svg">
<path fill-rule="evenodd" clip-rule="evenodd" d="M14.5667 27.0781C22.0208 27.0781 28.0635 21.0354 28.0635 13.5813C28.0635 6.12724 22.0208 0.0845337 14.5667 0.0845337C7.11266 0.0845337 1.06995 6.12724 1.06995 13.5813C1.06995 15.8881 1.64865 18.0597 2.66879 19.9588C2.6643 22.4065 2.14335 26.0223 0.0317383 27.0781C0.0317383 27.419 1.54342 27.4913 7.54553 25.1103C9.59111 26.3587 11.9949 27.0781 14.5667 27.0781ZM14.5667 23.0431C9.3411 23.0431 5.10491 18.8069 5.10491 13.5813C5.10491 8.35569 9.3411 4.11949 14.5667 4.11949C19.7923 4.11949 24.0285 8.35569 24.0285 13.5813C24.0285 18.8069 19.7923 23.0431 14.5667 23.0431Z" fill="#0779B8"/>
</svg>
