<svg width="29" height="28" viewBox="0 0 29 28" fill="none" xmlns="http://www.w3.org/2000/svg">
<path fill-rule="evenodd" clip-rule="evenodd" d="M14.5667 27.1426C22.0208 27.1426 28.0635 21.0999 28.0635 13.6458C28.0635 6.19176 22.0208 0.149048 14.5667 0.149048C7.11266 0.149048 1.06995 6.19176 1.06995 13.6458C1.06995 15.9526 1.64865 18.1242 2.66879 20.0234C2.6643 22.471 2.14335 26.0868 0.0317383 27.1426C0.0317383 27.4836 1.54342 27.5558 7.54553 25.1748C9.59111 26.4233 11.9949 27.1426 14.5667 27.1426ZM14.5667 23.1076C9.3411 23.1076 5.10491 18.8714 5.10491 13.6458C5.10491 8.4202 9.3411 4.184 14.5667 4.184C19.7923 4.184 24.0285 8.4202 24.0285 13.6458C24.0285 18.8714 19.7923 23.1076 14.5667 23.1076Z" fill="#0779B8"/>
</svg>
