<svg width="29" height="28" viewBox="0 0 29 28" fill="none" xmlns="http://www.w3.org/2000/svg">
<path fill-rule="evenodd" clip-rule="evenodd" d="M15.0191 26.9935C22.4732 26.9935 28.5159 20.9508 28.5159 13.4968C28.5159 6.04271 22.4732 0 15.0191 0C7.56505 0 1.52234 6.04271 1.52234 13.4968C1.52234 15.8035 2.10104 17.9751 3.12118 19.8743C3.11669 22.322 2.59574 25.9377 0.484131 26.9935C0.484131 27.3345 1.99581 27.4067 7.99792 25.0258C10.0435 26.2742 12.4473 26.9935 15.0191 26.9935ZM15.0191 22.9586C9.7935 22.9586 5.5573 18.7224 5.5573 13.4968C5.5573 8.27115 9.7935 4.03495 15.0191 4.03495C20.2447 4.03495 24.4809 8.27115 24.4809 13.4968C24.4809 18.7224 20.2447 22.9586 15.0191 22.9586Z" fill="#0779B8"/>
</svg>
