<svg width="29" height="28" viewBox="0 0 29 28" fill="none" xmlns="http://www.w3.org/2000/svg">
<path fill-rule="evenodd" clip-rule="evenodd" d="M15.0509 27.0781C22.5049 27.0781 28.5476 21.0354 28.5476 13.5813C28.5476 6.12724 22.5049 0.0845337 15.0509 0.0845337C7.59679 0.0845337 1.55408 6.12724 1.55408 13.5813C1.55408 15.8881 2.13278 18.0597 3.15292 19.9588C3.14843 22.4065 2.62748 26.0223 0.515869 27.0781C0.515869 27.419 2.02755 27.4913 8.02966 25.1103C10.0752 26.3587 12.479 27.0781 15.0509 27.0781ZM15.0509 23.0431C9.82524 23.0431 5.58904 18.8069 5.58904 13.5813C5.58904 8.35569 9.82524 4.11949 15.0509 4.11949C20.2765 4.11949 24.5127 8.35569 24.5127 13.5813C24.5127 18.8069 20.2765 23.0431 15.0509 23.0431Z" fill="#0779B8"/>
</svg>
