<svg width="29" height="28" viewBox="0 0 29 28" fill="none" xmlns="http://www.w3.org/2000/svg">
<path fill-rule="evenodd" clip-rule="evenodd" d="M14.535 27.058C21.989 27.058 28.0318 21.0153 28.0318 13.5612C28.0318 6.10716 21.989 0.0644531 14.535 0.0644531C7.08092 0.0644531 1.03821 6.10716 1.03821 13.5612C1.03821 15.868 1.61691 18.0396 2.63705 19.9388C2.63256 22.3864 2.11161 26.0022 0 27.058C0 27.399 1.51168 27.4712 7.51379 25.0902C9.55937 26.3387 11.9632 27.058 14.535 27.058ZM14.535 23.023C9.30937 23.023 5.07317 18.7868 5.07317 13.5612C5.07317 8.33561 9.30937 4.09941 14.535 4.09941C19.7606 4.09941 23.9968 8.33561 23.9968 13.5612C23.9968 18.7868 19.7606 23.023 14.535 23.023Z" fill="#0779B8"/>
</svg>
